<svg xmlns="http://www.w3.org/2000/svg" viewBox="0 0 100 125" fill="none" x="0px" y="0px"><path d="M8.46961 34.7047L5.47298 34.5626L8.46961 34.7047ZM21.0361 21.5316L20.8084 18.5402L21.0361 21.5316ZM8.47899 65.1189L11.4756 64.976L8.47899 65.1189ZM20.8168 78.2509L21.0849 75.2629H21.0849L20.8168 78.2509ZM79.1254 78.2561L79.3928 81.2442H79.3928L79.1254 78.2561ZM91.4954 65.0574L88.4987 64.9163V64.9163L91.4954 65.0574ZM91.5046 34.7656L88.5079 34.9061V34.9061L91.5046 34.7656ZM78.9041 21.527L78.677 24.5184L78.9041 21.527ZM63 50L64.5186 52.5872C65.4363 52.0486 66 51.0641 66 50C66 48.9359 65.4363 47.9514 64.5186 47.4128L63 50ZM40 36.5L41.5186 33.9128C40.591 33.3683 39.4428 33.3621 38.5093 33.8966C37.5759 34.431 37 35.4244 37 36.5H40ZM40 63.5H37C37 64.5756 37.5759 65.569 38.5093 66.1034C39.4428 66.6379 40.591 66.6317 41.5186 66.0872L40 63.5ZM11.4662 34.8469C11.729 29.3096 15.875 24.9331 21.2637 24.5229L20.8084 18.5402C12.2624 19.1907 5.87256 26.1405 5.47298 34.5626L11.4662 34.8469ZM11 49.8133C11 45.8105 11.2195 40.047 11.4662 34.8469L5.47298 34.5626C5.22602 39.7678 5 45.6556 5 49.8133H11ZM11.4756 64.976C11.2251 59.7261 11 53.8671 11 49.8133H5C5 54.0232 5.23175 60.0076 5.4824 65.2619L11.4756 64.976ZM21.0849 75.2629C15.7826 74.7872 11.7365 70.4465 11.4756 64.976L5.4824 65.2619C5.87879 73.5715 12.1105 80.4819 20.5488 81.2389L21.0849 75.2629ZM50 76.5C37.9633 76.5 28.0698 75.8896 21.0849 75.2629L20.5488 81.2389C27.6886 81.8795 37.7624 82.5 50 82.5V76.5ZM78.8579 75.2681C71.8763 75.8929 62.0039 76.5 50 76.5V82.5C62.2043 82.5 72.2565 81.8829 79.3928 81.2442L78.8579 75.2681ZM88.4987 64.9163C88.2396 70.4203 84.1783 74.7919 78.8579 75.2681L79.3928 81.2442C87.8661 80.4858 94.0999 73.528 94.4921 65.1985L88.4987 64.9163ZM89 49.8133C89 53.3062 88.7596 59.3766 88.4987 64.9163L94.4921 65.1985C94.752 59.6789 95 53.4698 95 49.8133H89ZM88.5079 34.9061C88.7653 40.3938 89 46.3621 89 49.8133H95C95 46.1996 94.7578 40.0936 94.5013 34.6251L88.5079 34.9061ZM78.677 24.5184C84.0846 24.9289 88.2467 29.3358 88.5079 34.9061L94.5013 34.6251C94.1055 26.1826 87.7117 19.187 79.1312 18.5356L78.677 24.5184ZM50 23.5C62.0829 23.5 71.7989 23.9963 78.677 24.5184L79.1312 18.5356C72.1146 18.003 62.2466 17.5 50 17.5V23.5ZM21.2637 24.5229C28.1453 23.9991 37.8824 23.5 50 23.5V17.5C37.7182 17.5 27.8288 18.0059 20.8084 18.5402L21.2637 24.5229ZM64.5186 47.4128L41.5186 33.9128L38.4814 39.0872L61.4814 52.5872L64.5186 47.4128ZM41.5186 66.0872L64.5186 52.5872L61.4814 47.4128L38.4814 60.9128L41.5186 66.0872ZM37 36.5V63.5H43V36.5H37Z" fill="black"/><text x="0" y="115" fill="#000000" font-size="5px" font-weight="bold" font-family="'Helvetica Neue', Helvetica, Arial-Unicode, Arial, Sans-serif">Created by Dave Robson</text><text x="0" y="120" fill="#000000" font-size="5px" font-weight="bold" font-family="'Helvetica Neue', Helvetica, Arial-Unicode, Arial, Sans-serif">from the Noun Project</text></svg>